HIERARCHY
ROOT Root
{
  OFFSET 0.0 0.0 0.0
  CHANNELS 6 Xposition Yposition Zposition Zrotation Yrotation Xrotation
  JOINT Hips
  {
    OFFSET 0.0 100.0 0.0
    CHANNELS 6 Xposition Yposition Zposition Zrotation Yrotation Xrotation
    JOINT Spine1
    {
      OFFSET 5.003913 -0.037094 -0.013727
      CHANNELS 3 Zrotation Yrotation Xrotation
      JOINT Spine2
      {
        OFFSET 7.125363 -1e-06 0.0
        CHANNELS 3 Zrotation Yrotation Xrotation
        JOINT Chest
        {
          OFFSET 7.594027 1e-06 0.0
          CHANNELS 3 Zrotation Yrotation Xrotation
          JOINT Neck1
          {
            OFFSET 26.313086 -0.460272 -0.181672
            CHANNELS 3 Zrotation Yrotation Xrotation
            JOINT Neck2
            {
              OFFSET 8.045911 0.0 0.0
              CHANNELS 3 Zrotation Yrotation Xrotation
              JOINT Head
              {
                OFFSET 6.432774 0.0 0.0
                CHANNELS 3 Zrotation Yrotation Xrotation
                JOINT HeadEnd
                {
                  OFFSET 16.169773 0.06451 0.00362
                  CHANNELS 3 Zrotation Yrotation Xrotation
                }
                JOINT Jaw
                {
                  OFFSET 0.108741 3.12938 0.002639
                  CHANNELS 3 Zrotation Yrotation Xrotation
                }
                JOINT LeftEye
                {
                  OFFSET 4.45173 8.166359 3.206392
                  CHANNELS 3 Zrotation Yrotation Xrotation
                }
                JOINT RightEye
                {
                  OFFSET 4.436895 8.135758 -3.222429
                  CHANNELS 3 Zrotation Yrotation Xrotation
                }
              }
            }
          }
          JOINT LeftShoulder
          {
            OFFSET 23.218927 5.195579 1.621656
            CHANNELS 3 Zrotation Yrotation Xrotation
            JOINT LeftArm
            {
              OFFSET 15.902118 2e-06 -2e-06
              CHANNELS 3 Zrotation Yrotation Xrotation
              JOINT LeftForeArm
              {
                OFFSET 28.739307 0.0 -1e-06
                CHANNELS 3 Zrotation Yrotation Xrotation
                JOINT LeftHand
                {
                  OFFSET 27.093981 -4e-06 0.0
                  CHANNELS 3 Zrotation Yrotation Xrotation
                  JOINT LeftHandThumb1
                  {
                    OFFSET 2.276781 3.380274 0.83384
                    CHANNELS 3 Zrotation Yrotation Xrotation
                    JOINT LeftHandThumb2
                    {
                      OFFSET 4.705309 -1e-06 -1e-06
                      CHANNELS 3 Zrotation Yrotation Xrotation
                      JOINT LeftHandThumb3
                      {
                        OFFSET 2.798515 0.0 3e-06
                        CHANNELS 3 Zrotation Yrotation Xrotation
                        JOINT LeftHandThumbEnd
                        {
                          OFFSET 3.180793 4e-06 -4e-06
                          CHANNELS 3 Zrotation Yrotation Xrotation
                        }
                      }
                    }
                  }
                  JOINT LeftHandIndex1
                  {
                    OFFSET 3.247786 2.352677 0.137192
                    CHANNELS 3 Zrotation Yrotation Xrotation
                    JOINT LeftHandIndex2
                    {
                      OFFSET 6.367095 1e-06 0.0
                      CHANNELS 3 Zrotation Yrotation Xrotation
                      JOINT LeftHandIndex3
                      {
                        OFFSET 3.662364 0.0 0.0
                        CHANNELS 3 Zrotation Yrotation Xrotation
                        JOINT LeftHandIndex4
                        {
                          OFFSET 2.329242 4e-06 -4e-06
                          CHANNELS 3 Zrotation Yrotation Xrotation
                          JOINT LeftHandIndexEnd
                          {
                            OFFSET 2.767823 1e-06 0.0
                            CHANNELS 3 Zrotation Yrotation Xrotation
                          }
                        }
                      }
                    }
                  }
                  JOINT LeftHandMiddle1
                  {
                    OFFSET 3.163612 0.945023 -0.406112
                    CHANNELS 3 Zrotation Yrotation Xrotation
                    JOINT LeftHandMiddle2
                    {
                      OFFSET 6.276789 3e-06 0.0
                      CHANNELS 3 Zrotation Yrotation Xrotation
                      JOINT LeftHandMiddle3
                      {
                        OFFSET 4.35652 -1e-06 4e-06
                        CHANNELS 3 Zrotation Yrotation Xrotation
                        JOINT LeftHandMiddle4
                        {
                          OFFSET 2.996877 0.0 8e-06
                          CHANNELS 3 Zrotation Yrotation Xrotation
                          JOINT LeftHandMiddleEnd
                          {
                            OFFSET 2.323256 3e-06 -4e-06
                            CHANNELS 3 Zrotation Yrotation Xrotation
                          }
                        }
                      }
                    }
                  }
                  JOINT LeftHandRing1
                  {
                    OFFSET 2.882606 -0.309162 0.107445
                    CHANNELS 3 Zrotation Yrotation Xrotation
                    JOINT LeftHandRing2
                    {
                      OFFSET 6.033198 0.0 4e-06
                      CHANNELS 3 Zrotation Yrotation Xrotation
                      JOINT LeftHandRing3
                      {
                        OFFSET 4.350578 3e-06 0.0
                        CHANNELS 3 Zrotation Yrotation Xrotation
                        JOINT LeftHandRing4
                        {
                          OFFSET 2.651321 2e-06 -7e-06
                          CHANNELS 3 Zrotation Yrotation Xrotation
                          JOINT LeftHandRingEnd
                          {
                            OFFSET 1.937663 1e-06 -4e-06
                            CHANNELS 3 Zrotation Yrotation Xrotation
                          }
                        }
                      }
                    }
                  }
                  JOINT LeftHandPinky1
                  {
                    OFFSET 2.865315 -1.525436 0.575687
                    CHANNELS 3 Zrotation Yrotation Xrotation
                    JOINT LeftHandPinky2
                    {
                      OFFSET 5.54936 1e-06 -8e-06
                      CHANNELS 3 Zrotation Yrotation Xrotation
                      JOINT LeftHandPinky3
                      {
                        OFFSET 3.070974 0.0 -4e-06
                        CHANNELS 3 Zrotation Yrotation Xrotation
                        JOINT LeftHandPinky4
                        {
                          OFFSET 1.549672 1e-06 0.0
                          CHANNELS 3 Zrotation Yrotation Xrotation
                          JOINT LeftHandPinkyEnd
                          {
                            OFFSET 1.952123 0.0 0.0
                            CHANNELS 3 Zrotation Yrotation Xrotation
                          }
                        }
                      }
                    }
                  }
                }
              }
            }
          }
          JOINT RightShoulder
          {
            OFFSET 23.161716 5.296122 -1.380114
            CHANNELS 3 Zrotation Yrotation Xrotation
            JOINT RightArm
            {
              OFFSET -16.027195 -2e-06 1.1e-05
              CHANNELS 3 Zrotation Yrotation Xrotation
              JOINT RightForeArm
              {
                OFFSET -28.736639 4e-06 2e-06
                CHANNELS 3 Zrotation Yrotation Xrotation
                JOINT RightHand
                {
                  OFFSET -27.133619 6e-06 0.0
                  CHANNELS 3 Zrotation Yrotation Xrotation
                  JOINT RightHandThumb1
                  {
                    OFFSET -2.274328 -3.351035 -0.83067
                    CHANNELS 3 Zrotation Yrotation Xrotation
                    JOINT RightHandThumb2
                    {
                      OFFSET -4.703594 -3e-06 2e-06
                      CHANNELS 3 Zrotation Yrotation Xrotation
                      JOINT RightHandThumb3
                      {
                        OFFSET -2.794935 -4e-06 -3e-06
                        CHANNELS 3 Zrotation Yrotation Xrotation
                        JOINT RightHandThumbEnd
                        {
                          OFFSET -3.183852 4e-06 1e-06
                          CHANNELS 3 Zrotation Yrotation Xrotation
                        }
                      }
                    }
                  }
                  JOINT RightHandIndex1
                  {
                    OFFSET -3.253496 -2.33755 -0.127667
                    CHANNELS 3 Zrotation Yrotation Xrotation
                    JOINT RightHandIndex2
                    {
                      OFFSET -6.344434 0.0 0.0
                      CHANNELS 3 Zrotation Yrotation Xrotation
                      JOINT RightHandIndex3
                      {
                        OFFSET -3.654871 0.0 -8e-06
                        CHANNELS 3 Zrotation Yrotation Xrotation
                        JOINT RightHandIndex4
                        {
                          OFFSET -2.327586 -1e-06 0.0
                          CHANNELS 3 Zrotation Yrotation Xrotation
                          JOINT RightHandIndexEnd
                          {
                            OFFSET -2.770001 3e-06 8e-06
                            CHANNELS 3 Zrotation Yrotation Xrotation
                          }
                        }
                      }
                    }
                  }
                  JOINT RightHandMiddle1
                  {
                    OFFSET -3.168223 -0.944764 0.411762
                    CHANNELS 3 Zrotation Yrotation Xrotation
                    JOINT RightHandMiddle2
                    {
                      OFFSET -6.266691 -1e-06 -4e-06
                      CHANNELS 3 Zrotation Yrotation Xrotation
                      JOINT RightHandMiddle3
                      {
                        OFFSET -4.348901 0.0 0.0
                        CHANNELS 3 Zrotation Yrotation Xrotation
                        JOINT RightHandMiddle4
                        {
                          OFFSET -3.00024 2e-06 -4e-06
                          CHANNELS 3 Zrotation Yrotation Xrotation
                          JOINT RightHandMiddleEnd
                          {
                            OFFSET -2.321477 -4e-06 -4e-06
                            CHANNELS 3 Zrotation Yrotation Xrotation
                          }
                        }
                      }
                    }
                  }
                  JOINT RightHandRing1
                  {
                    OFFSET -2.885654 0.293261 -0.119232
                    CHANNELS 3 Zrotation Yrotation Xrotation
                    JOINT RightHandRing2
                    {
                      OFFSET -6.032835 -1e-06 -4e-06
                      CHANNELS 3 Zrotation Yrotation Xrotation
                      JOINT RightHandRing3
                      {
                        OFFSET -4.33881 0.0 -4e-06
                        CHANNELS 3 Zrotation Yrotation Xrotation
                        JOINT RightHandRing4
                        {
                          OFFSET -2.654903 -4e-06 -4e-06
                          CHANNELS 3 Zrotation Yrotation Xrotation
                          JOINT RightHandRingEnd
                          {
                            OFFSET -1.935122 0.0 4e-06
                            CHANNELS 3 Zrotation Yrotation Xrotation
                          }
                        }
                      }
                    }
                  }
                  JOINT RightHandPinky1
                  {
                    OFFSET -2.866241 1.503904 -0.60527
                    CHANNELS 3 Zrotation Yrotation Xrotation
                    JOINT RightHandPinky2
                    {
                      OFFSET -5.553177 -2e-06 0.0
                      CHANNELS 3 Zrotation Yrotation Xrotation
                      JOINT RightHandPinky3
                      {
                        OFFSET -3.062664 -1e-06 -4e-06
                        CHANNELS 3 Zrotation Yrotation Xrotation
                        JOINT RightHandPinky4
                        {
                          OFFSET -1.546529 2e-06 4e-06
                          CHANNELS 3 Zrotation Yrotation Xrotation
                          JOINT RightHandPinkyEnd
                          {
                            OFFSET -1.952341 0.0 -4e-06
                            CHANNELS 3 Zrotation Yrotation Xrotation
                          }
                        }
                      }
                    }
                  }
                }
              }
            }
          }
        }
      }
    }
    JOINT LeftLeg
    {
      OFFSET -8.443107 2.567604 10.043214
      CHANNELS 3 Zrotation Yrotation Xrotation
      JOINT LeftShin
      {
        OFFSET 43.229198 1e-06 -1e-06
        CHANNELS 3 Zrotation Yrotation Xrotation
        JOINT LeftFoot
        {
          OFFSET 42.298611 1e-06 1e-06
          CHANNELS 3 Zrotation Yrotation Xrotation
          JOINT LeftToeBase
          {
            OFFSET 14.165858 1e-06 0.0
            CHANNELS 3 Zrotation Yrotation Xrotation
            JOINT LeftToeEnd
            {
              OFFSET 6.7141 -0.234461 0.0
              CHANNELS 3 Zrotation Yrotation Xrotation
            }
          }
        }
      }
    }
    JOINT RightLeg
    {
      OFFSET -8.303923 2.592729 -10.047278
      CHANNELS 3 Zrotation Yrotation Xrotation
      JOINT RightShin
      {
        OFFSET -43.369682 0.0 1e-06
        CHANNELS 3 Zrotation Yrotation Xrotation
        JOINT RightFoot
        {
          OFFSET -42.260784 4e-06 2e-06
          CHANNELS 3 Zrotation Yrotation Xrotation
          JOINT RightToeBase
          {
            OFFSET -14.222245 -2e-06 -1e-06
            CHANNELS 3 Zrotation Yrotation Xrotation
            JOINT RightToeEnd
            {
              OFFSET -6.660062 0.232574 -2e-06
              CHANNELS 3 Zrotation Yrotation Xrotation
            }
          }
        }
      }
    }
  }
}
MOTION
Frames: 4
Frame Time: 0.03333333333333333
0.0 0.0 0.0 0.0 -0.0 0.0 2.933308 47.837482 4.994147 87.351547 -64.401344 93.166061 8.668208 0.160949 -1.041527 -5.362186 -0.307767 -1.110249 16.762014 3.13932 -2.4561 6.675039 -2.252528 2.463016 -2.600235 0.344199 2.423123 -29.44219 1.993843 1.96172 8e-06 -0.0 -0.0 -0.142859 0.047062 -0.025519 0.043348 0.110609 0.017379 0.093859 -0.019246 -0.06858 -53.959774 -67.925026 58.971607 89.085678 -6.3841 -31.879059 17.83881 -1.142448 0.011847 3.543273 66.422714 1.623515 17.636631 -26.322739 52.411198 -19.466661 -14.3956 29.410389 -2e-06 -8.774821 -2e-06 15.015638 -18.146708 7.319117 -0.609777 -1.795655 -3.889329 -4.80709 -11.046814 -2.93785 3e-06 -20.976021 0.0 -5.01997 -25.033562 -4.031881 6e-06 0.0 -0.0 -10.634535 -5.686971 -3.565588 10.573271 -17.922953 -3.113899 2e-06 -13.821213 3e-06 -0.501777 -31.181507 -4.027014 -10.849565 -59.007221 7.918069 -13.982714 -7.150199 -2.875042 13.772731 -8.401495 -3.218241 0.347732 -34.211559 0.771655 -0.963029 -17.733374 2.621017 -0.0 0.0 1e-06 -17.346422 -20.095222 -4.201779 21.757557 -1.638375 3.866428 2e-06 -6.338825 -1e-06 -1.697588 -22.591745 -6.194005 1e-06 -3e-06 -3e-06 142.325256 -78.977142 41.875526 93.922035 -1.872141 -21.884365 7.454461 -0.825303 -0.032133 36.665325 69.517593 35.052605 22.18211 -20.375891 49.933315 -16.701807 -16.743528 28.476522 -2e-06 -12.6906 -1e-06 17.250353 -18.139896 2.180355 -0.105919 -1.513857 -4.275881 -5.039038 -5.612868 -2.953557 4e-06 -11.020523 -2e-06 -6.111296 -15.89533 -3.84047 0.0 -1e-06 -0.0 -10.283368 -5.680288 -4.341838 11.028292 -11.302402 -2.372633 -1.384268 -14.238577 -6.32012 -0.625438 -26.924187 -3.827598 -4.433601 -49.420956 -4.496091 -13.70852 -7.363472 -3.720939 18.141146 -14.052738 -3.242675 6e-06 -18.787266 -1e-06 -0.429712 -8.456039 2.555504 0.0 -2e-06 -0.0 -15.923532 -20.094479 -5.473584 30.419207 -7.190824 1.735925 2e-06 -8.162927 -1e-06 -1.861901 -22.861465 -6.16794 -1e-06 -4e-06 -1e-06 108.963005 -9.108196 -0.362302 119.110977 -0.609629 0.29672 -92.35498 18.499552 -4.68595 -25.884808 1.429678 1.557899 -0.999999 0.0 -0.0 -70.645096 -10.115469 4.60818 115.166115 -1.139847 0.103538 -73.377136 14.980947 -0.494883 -20.803356 0.852759 1.422507 -1.000001 0.0 0.0 
0.0 0.0 0.0 0.0 -0.0 0.0 3.085869 47.804115 5.069602 87.005104 -64.441673 93.452866 8.617884 0.267047 -1.005808 -5.436627 -0.267254 -1.065409 16.885866 3.141377 -2.333238 6.733404 -2.421933 2.364016 -2.616388 0.349961 2.348778 -29.439587 2.076475 1.847239 5e-06 -0.0 -0.0 -0.150506 0.009122 -0.008304 0.08538 0.065617 0.040751 0.127418 -0.048032 -0.060195 -54.206329 -67.975937 59.575768 89.430656 -6.059635 -32.303123 17.681932 -1.129896 -0.007067 5.065706 66.28804 3.12448 17.636629 -26.322729 52.411209 -19.466667 -14.3956 29.410393 -2e-06 -8.774822 -2e-06 15.042083 -18.240883 7.357956 -0.609776 -1.795654 -3.889329 -4.807086 -11.046813 -2.937852 8e-06 -20.976019 -3e-06 -5.019967 -25.03356 -4.031882 6e-06 1e-06 -1e-06 -10.634535 -5.686972 -3.565589 10.573277 -17.922955 -3.113905 5e-06 -13.821212 1e-06 -0.501772 -31.181505 -4.027018 -10.832129 -59.240417 7.973506 -13.982717 -7.150196 -2.875044 13.772731 -8.401495 -3.218242 0.347738 -34.211555 0.771652 -0.963027 -17.73337 2.62102 -0.0 0.0 -0.0 -17.346422 -20.095217 -4.201785 21.757561 -1.638377 3.866426 2e-06 -6.338825 -1e-06 -1.697586 -22.591743 -6.194006 -0.0 -3e-06 -6e-06 142.297455 -78.872482 42.090542 93.788399 -1.796757 -22.129566 7.42723 -0.792818 -0.027238 37.423973 69.345848 35.706821 22.182112 -20.3759 49.933346 -16.701817 -16.74353 28.476543 -3e-06 -12.690602 0.0 17.17972 -18.09454 2.230496 -0.105919 -1.513856 -4.275883 -5.039042 -5.612872 -2.953557 5e-06 -11.020528 -3e-06 -6.111298 -15.895338 -3.840471 0.0 -2e-06 -0.0 -10.283371 -5.680289 -4.341839 11.028296 -11.302407 -2.372636 -1.384268 -14.238583 -6.320124 -0.625437 -26.924194 -3.827603 -4.404432 -49.501209 -4.443285 -13.708526 -7.363477 -3.720941 18.141155 -14.052743 -3.242678 6e-06 -18.787275 -2e-06 -0.429711 -8.456044 2.555504 0.0 -2e-06 -1e-06 -15.923538 -20.094492 -5.473587 30.419218 -7.190826 1.735923 1e-06 -8.162929 -1e-06 -1.861902 -22.861479 -6.167943 -1e-06 -2e-06 -0.0 108.990524 -9.066802 -0.411391 119.076332 -0.648741 0.286044 -92.186012 18.422417 -4.459627 -25.612751 1.445384 1.517719 -1.0 0.0 0.0 -70.547318 -10.127562 4.594571 115.003464 -1.127767 0.094344 -73.192322 15.044934 -0.52213 -20.479708 0.840254 1.439022 -1.000003 -0.0 0.0 
0.0 0.0 0.0 0.0 -0.0 0.0 3.198854 47.781796 5.136398 86.857124 -64.459198 93.621979 8.534349 0.333002 -0.96529 -5.501729 -0.222629 -1.01249 17.019011 3.118296 -2.273123 6.847572 -2.565033 2.269811 -2.640567 0.333509 2.250857 -29.480631 2.117183 1.738654 5e-06 0.0 0.0 -0.150864 -0.015371 0.003364 0.073346 0.038068 0.047208 0.115996 -0.068315 -0.04693 -54.075504 -68.011604 59.703987 89.688972 -5.860623 -32.471436 17.598989 -1.093911 -0.001117 5.623427 66.135841 3.625837 17.636623 -26.322725 52.411194 -19.46666 -14.395597 29.410385 -0.0 -8.774821 -1e-06 15.062282 -18.282463 7.353354 -0.609778 -1.795655 -3.889327 -4.807088 -11.046811 -2.937851 6e-06 -20.976011 -3e-06 -5.019968 -25.033554 -4.031883 6e-06 0.0 1e-06 -10.634535 -5.686973 -3.565587 10.573276 -17.922949 -3.113903 3e-06 -13.821212 1e-06 -0.501776 -31.181505 -4.027018 -10.771946 -59.359329 7.937057 -13.982714 -7.150198 -2.875042 13.77273 -8.401493 -3.218241 0.347734 -34.211544 0.771654 -0.963029 -17.733368 2.62102 -0.0 0.0 1e-06 -17.346422 -20.095217 -4.201779 21.757557 -1.638376 3.866427 1e-06 -6.338825 -0.0 -1.697589 -22.591742 -6.194005 -0.0 -4e-06 -2e-06 142.677383 -78.819733 41.864346 93.482666 -1.786085 -22.270103 7.489245 -0.801676 -0.025483 38.231548 69.329941 36.718758 22.182121 -20.375896 49.933323 -16.701817 -16.743534 28.476534 -2e-06 -12.690603 -0.0 17.125273 -17.995522 2.283871 -0.10592 -1.513856 -4.275881 -5.039042 -5.612871 -2.953558 4e-06 -11.020528 -2e-06 -6.1113 -15.895338 -3.840471 1e-06 -1e-06 1e-06 -10.283373 -5.680288 -4.341839 11.028296 -11.302407 -2.372633 -1.384269 -14.238581 -6.320122 -0.625438 -26.924196 -3.827603 -4.378433 -49.503937 -4.365501 -13.708529 -7.363477 -3.720939 18.141151 -14.05274 -3.242675 7e-06 -18.787271 -2e-06 -0.429712 -8.456045 2.555505 0.0 -1e-06 -0.0 -15.923539 -20.094486 -5.473586 30.419222 -7.190828 1.735928 2e-06 -8.162925 -0.0 -1.861903 -22.861473 -6.167942 -2e-06 -3e-06 -1e-06 109.060135 -8.963433 -0.458354 119.043343 -0.654342 0.288638 -92.23764 18.245401 -4.336375 -25.592459 1.45524 1.499341 -0.999999 -0.0 0.0 -70.424362 -10.174615 4.665236 114.915527 -1.104185 0.112786 -73.396149 15.127953 -0.694165 -20.415401 0.827583 1.450887 -1.000002 0.0 0.0 
0.0 0.0 0.0 0.0 -0.0 0.0 3.259226 47.769062 5.174674 86.736229 -64.512787 93.803963 8.446382 0.378706 -0.939693 -5.551602 -0.193184 -0.972732 17.093863 3.142562 -2.258391 6.933273 -2.728473 2.189491 -2.650085 0.310971 2.168737 -29.560974 2.173968 1.651582 4e-06 0.0 -0.0 -0.150712 -0.033847 0.011496 0.041822 0.018438 0.046902 0.089282 -0.085871 -0.032599 -53.937881 -68.013756 59.75893 89.889648 -5.744349 -32.658398 17.585003 -1.074434 -0.000258 6.092123 66.115509 4.293379 17.636625 -26.322721 52.411179 -19.466654 -14.395596 29.410378 -2e-06 -8.774818 -1e-06 15.06681 -18.274502 7.33587 -0.609776 -1.795653 -3.889327 -4.807086 -11.046809 -2.93785 5e-06 -20.976011 -1e-06 -5.019968 -25.033552 -4.031882 6e-06 0.0 -0.0 -10.634531 -5.68697 -3.565587 10.573271 -17.922947 -3.113899 4e-06 -13.821209 1e-06 -0.501776 -31.181501 -4.027017 -10.734567 -59.389587 7.860821 -13.982712 -7.150198 -2.875041 13.772726 -8.401493 -3.21824 0.347734 -34.211544 0.771652 -0.963027 -17.733368 2.621017 -0.0 0.0 -0.0 -17.346415 -20.095213 -4.201782 21.757555 -1.638373 3.866428 2e-06 -6.338824 -0.0 -1.697588 -22.591742 -6.194006 -0.0 -4e-06 -2e-06 143.086563 -78.742989 41.499626 93.184738 -1.90496 -22.386637 7.659588 -0.803429 -0.026018 38.810429 69.409775 37.573875 22.182112 -20.375887 49.933308 -16.701809 -16.743525 28.476519 -2e-06 -12.690598 -2e-06 17.11874 -17.925331 2.324682 -0.10592 -1.513856 -4.275879 -5.03904 -5.612868 -2.953555 5e-06 -11.020524 -2e-06 -6.111297 -15.895329 -3.840471 0.0 -2e-06 1e-06 -10.283369 -5.680286 -4.341838 11.028293 -11.302404 -2.372632 -1.384268 -14.238577 -6.32012 -0.625438 -26.924183 -3.827602 -4.367499 -49.536518 -4.275707 -13.708521 -7.363473 -3.720939 18.141146 -14.052735 -3.242674 6e-06 -18.787268 -2e-06 -0.429711 -8.456038 2.555503 0.0 1e-06 0.0 -15.923532 -20.094475 -5.473584 30.41921 -7.190826 1.735926 2e-06 -8.162925 -0.0 -1.861902 -22.861467 -6.16794 1e-06 -2e-06 -0.0 109.042267 -8.834615 -0.414408 119.047661 -0.642893 0.293964 -92.461937 18.067152 -4.28358 -25.757607 1.46093 1.499204 -0.999999 -0.0 1e-06 -70.359894 -10.208962 4.729799 114.917618 -1.068789 0.12797 -73.967415 15.134653 -1.004687 -20.53388 0.819009 1.462165 -1.000001 0.0 0.0 
